<?xml version="1.0" encoding="utf-8"?>
<!-- Generator: Adobe Illustrator 25.4.1, SVG Export Plug-In . SVG Version: 6.00 Build 0)  -->
<svg version="1.1" id="Layer_1" xmlns="http://www.w3.org/2000/svg" xmlns:xlink="http://www.w3.org/1999/xlink" x="0px" y="0px"
	 viewBox="0 0 141 120" style="enable-background:new 0 0 141 120;" xml:space="preserve">
<style type="text/css">
	.st0{clip-path:url(#SVGID_00000150090412180412670480000018052148696182258821_);fill:#D4F1F5;}
	.st1{clip-path:url(#SVGID_00000150090412180412670480000018052148696182258821_);fill:#29BACC;}
	.st2{clip-path:url(#SVGID_00000150090412180412670480000018052148696182258821_);fill:#E83082;}
	.st3{clip-path:url(#SVGID_00000150090412180412670480000018052148696182258821_);fill:#A83673;}
	.st4{clip-path:url(#SVGID_00000150090412180412670480000018052148696182258821_);fill:#009C57;}
	.st5{clip-path:url(#SVGID_00000150090412180412670480000018052148696182258821_);fill:#057D42;}
	.st6{fill:#A16338;}
	.st7{clip-path:url(#SVGID_00000114063617577764354430000001452800637174247358_);fill:#334D2B;}
	.st8{clip-path:url(#SVGID_00000114063617577764354430000001452800637174247358_);fill:#A3C72E;}
	.st9{clip-path:url(#SVGID_00000114063617577764354430000001452800637174247358_);fill:#F59100;}
</style>
<g>
	<defs>
		<rect id="SVGID_1_" x="0.32" y="0.64" width="140.53" height="118.75"/>
	</defs>
	<clipPath id="SVGID_00000010276513791837736910000012442946413466631073_">
		<use xlink:href="#SVGID_1_"  style="overflow:visible;"/>
	</clipPath>
	<path style="clip-path:url(#SVGID_00000010276513791837736910000012442946413466631073_);fill:#D4F1F5;" d="M19.38,13.99
		C-7.2,32.6-5.82,63.73,22.47,83.53l51.21,35.85l48.12-33.69c26.58-18.61,25.19-49.75-3.09-69.55C90.42-3.66,45.95-4.62,19.38,13.99
		"/>
	<path style="clip-path:url(#SVGID_00000010276513791837736910000012442946413466631073_);fill:#29BACC;" d="M37.6,70.59
		c4.96,3.48,10.68,6.15,16.72,7.97c33.09,9.98,67.26-6.38,67.33-29.94l-18.2,1.73c-3.5,18.13-34.47,24.99-53.56,11.63L37.6,70.59"/>
	<path style="clip-path:url(#SVGID_00000010276513791837736910000012442946413466631073_);fill:#E83082;" d="M37.6,70.59L37.6,70.59
		C5.71,48.27,25.76,11.81,69.02,12.17l0.9,12.57c-27.89-0.23-40.17,23.14-20.03,37.25L37.6,70.59"/>
	<path style="clip-path:url(#SVGID_00000010276513791837736910000012442946413466631073_);fill:#A83673;" d="M37.2,61.71
		c-3.39,2.38-3.22,6.35,0.39,8.88c3.61,2.53,9.29,2.65,12.68,0.28c3.39-2.38,3.22-6.35-0.39-8.88C46.28,59.46,40.6,59.33,37.2,61.71
		"/>
	<path style="clip-path:url(#SVGID_00000010276513791837736910000012442946413466631073_);fill:#009C57;" d="M92.1,42.41l11.35,7.95
		l15.37-6.45L97.85,29.22L92.1,42.41z M121.65,48.55L121.65,48.55C121.65,48.55,121.64,48.55,121.65,48.55 M121.64,48.57
		C121.65,48.57,121.65,48.57,121.64,48.57C121.64,48.57,121.64,48.57,121.64,48.57 M121.65,48.58c0,0,0,0.01,0,0.01
		C121.64,48.59,121.65,48.59,121.65,48.58 M121.65,48.6c0,0.01,0,0.01,0,0.02C121.65,48.61,121.65,48.61,121.65,48.6"/>
	<path style="clip-path:url(#SVGID_00000010276513791837736910000012442946413466631073_);fill:#057D42;" d="M106.13,43.63
		c-1.51,1.06-2.43,2.52-2.43,4.18c0,0.83-0.08,1.68-0.25,2.54l3.08,2.16c3.61,2.53,9.29,2.65,12.68,0.28
		c1.62-1.13,2.43-2.63,2.43-4.17c0-0.01,0-0.01,0-0.02c0,0,0,0,0-0.01c0,0,0-0.01,0-0.01c0,0,0-0.01,0-0.01c0,0,0,0,0-0.01
		c0,0,0-0.01,0-0.01c0,0,0,0,0,0c-0.01-0.82-0.25-1.65-0.71-2.43c-1.36-2.31-4.55-4.02-8.26-4.18
		C110.1,41.82,107.77,42.48,106.13,43.63"/>
</g>
<polygon class="st6" points="76.36,53.42 63.28,44.27 85.16,28.94 92.1,42.41 "/>
<g>
	<defs>
		<rect id="SVGID_00000134215887646427719110000003824511501983066268_" x="0.32" y="0.64" width="140.53" height="118.75"/>
	</defs>
	<clipPath id="SVGID_00000139975478009473940230000001282496235854662018_">
		<use xlink:href="#SVGID_00000134215887646427719110000003824511501983066268_"  style="overflow:visible;"/>
	</clipPath>
	<path style="clip-path:url(#SVGID_00000139975478009473940230000001282496235854662018_);fill:#334D2B;" d="M85.16,28.94
		c-3.39,2.38-3.22,6.35,0.39,8.88l6.54,4.58l6.15-4.3c3.39-2.38,3.22-6.35-0.39-8.88C94.24,26.69,88.56,26.57,85.16,28.94"/>
	<path style="clip-path:url(#SVGID_00000139975478009473940230000001282496235854662018_);fill:#A3C72E;" d="M63.32,22.76
		c-3.61-2.53-3.79-6.51-0.39-8.88c3.39-2.38,9.07-2.25,12.68,0.28c3.61,2.53,3.79,6.51,0.39,8.88S66.93,25.29,63.32,22.76"/>
	<path style="clip-path:url(#SVGID_00000139975478009473940230000001282496235854662018_);fill:#F59100;" d="M63.68,53.15
		c-3.61-2.53-3.79-6.51-0.39-8.88c3.39-2.38,9.07-2.25,12.68,0.28c3.61,2.53,3.79,6.51,0.39,8.88
		C72.97,55.8,67.29,55.68,63.68,53.15"/>
</g>
</svg>
