<?xml version="1.0" encoding="utf-8"?>
<!-- Generator: Adobe Illustrator 25.4.1, SVG Export Plug-In . SVG Version: 6.00 Build 0)  -->
<svg version="1.1" id="Layer_1" xmlns="http://www.w3.org/2000/svg" xmlns:xlink="http://www.w3.org/1999/xlink" x="0px" y="0px"
	 viewBox="0 0 515 115" style="enable-background:new 0 0 515 115;" xml:space="preserve">
<style type="text/css">
	.st0{clip-path:url(#SVGID_00000028325243286003067010000017596298505777669784_);fill:#A6D9D6;}
	.st1{clip-path:url(#SVGID_00000028325243286003067010000017596298505777669784_);fill:#E83082;}
	.st2{clip-path:url(#SVGID_00000028325243286003067010000017596298505777669784_);fill:#A83673;}
	.st3{clip-path:url(#SVGID_00000028325243286003067010000017596298505777669784_);fill:#009C57;}
	.st4{clip-path:url(#SVGID_00000028325243286003067010000017596298505777669784_);fill:#057D42;}
	.st5{fill:#A16338;}
	.st6{clip-path:url(#SVGID_00000008109917584893065230000014780376426158321306_);fill:#334D2B;}
	.st7{clip-path:url(#SVGID_00000008109917584893065230000014780376426158321306_);fill:#A3C72E;}
	.st8{clip-path:url(#SVGID_00000008109917584893065230000014780376426158321306_);fill:#F59100;}
	.st9{clip-path:url(#SVGID_00000008109917584893065230000014780376426158321306_);fill:#9E1778;}
	.st10{clip-path:url(#SVGID_00000008109917584893065230000014780376426158321306_);fill:#009C57;}
	.st11{fill:#E82E82;}
	.st12{clip-path:url(#SVGID_00000085965386063135501480000009922619194563048868_);fill:#F59100;}
	.st13{clip-path:url(#SVGID_00000085965386063135501480000009922619194563048868_);fill:#009C57;}
	.st14{clip-path:url(#SVGID_00000085965386063135501480000009922619194563048868_);fill:#FAC7C2;}
	.st15{clip-path:url(#SVGID_00000085965386063135501480000009922619194563048868_);fill:#9E1778;}
	.st16{clip-path:url(#SVGID_00000085965386063135501480000009922619194563048868_);fill:#452938;}
	.st17{fill:#E5300A;}
	.st18{fill:#29BACC;}
	.st19{clip-path:url(#SVGID_00000124151922935324662130000012235568595522597527_);fill:#A3C72E;}
	.st20{clip-path:url(#SVGID_00000124151922935324662130000012235568595522597527_);fill:#6E2B29;}
	.st21{clip-path:url(#SVGID_00000124151922935324662130000012235568595522597527_);fill:#00A340;}
	.st22{clip-path:url(#SVGID_00000124151922935324662130000012235568595522597527_);fill:#E82E82;}
	.st23{clip-path:url(#SVGID_00000124151922935324662130000012235568595522597527_);fill:#FAC7C2;}
	.st24{clip-path:url(#SVGID_00000124151922935324662130000012235568595522597527_);fill:#3DA3DE;}
	.st25{fill:#3DA3DE;}
	.st26{clip-path:url(#SVGID_00000183965411428016744290000010069167617984493704_);fill:#A3C72E;}
	.st27{clip-path:url(#SVGID_00000183965411428016744290000010069167617984493704_);fill:#148F40;}
	.st28{clip-path:url(#SVGID_00000183965411428016744290000010069167617984493704_);fill:#F59100;}
	.st29{clip-path:url(#SVGID_00000183965411428016744290000010069167617984493704_);fill:#9E1778;}
	.st30{clip-path:url(#SVGID_00000183965411428016744290000010069167617984493704_);fill:#3DA3DE;}
	.st31{clip-path:url(#SVGID_00000183965411428016744290000010069167617984493704_);fill:#A17D24;}
	.st32{clip-path:url(#SVGID_00000183965411428016744290000010069167617984493704_);fill:#E82E82;}
	.st33{clip-path:url(#SVGID_00000183965411428016744290000010069167617984493704_);fill:#3D2E82;}
	.st34{clip-path:url(#SVGID_00000183965411428016744290000010069167617984493704_);fill:#E83082;}
	.st35{clip-path:url(#SVGID_00000183965411428016744290000010069167617984493704_);fill:#9E3829;}
</style>
<g>
	<defs>
		<rect id="SVGID_1_" x="2.32" y="3.67" width="509.71" height="107.96"/>
	</defs>
	<clipPath id="SVGID_00000059284952927418128730000003608252222519547575_">
		<use xlink:href="#SVGID_1_"  style="overflow:visible;"/>
	</clipPath>
	<path style="clip-path:url(#SVGID_00000059284952927418128730000003608252222519547575_);fill:#A6D9D6;" d="M2.32,47.22
		c0,5.7,1.16,11.16,3.26,16.12c11.49,27.16,46.62,33.36,67.2,14.09l-12.62-9.02c-17.94,12.84-42.83,0.7-42.83-21.19H2.32z"/>
	<path style="clip-path:url(#SVGID_00000059284952927418128730000003608252222519547575_);fill:#E83082;" d="M2.32,47.22L2.32,47.22
		c0-36.57,44.01-54.94,70.1-29.83L62.01,28.2c-16.82-16.19-44.69-4.08-44.7,19.02H2.32z"/>
	<path style="clip-path:url(#SVGID_00000059284952927418128730000003608252222519547575_);fill:#A83673;" d="M9.82,39.72
		c-4.14,0-7.5,3.36-7.5,7.5c0,4.14,3.36,7.5,7.5,7.5s7.5-3.36,7.5-7.5C17.32,43.08,13.96,39.72,9.82,39.72"/>
	<path style="clip-path:url(#SVGID_00000059284952927418128730000003608252222519547575_);fill:#009C57;" d="M60.15,55.39v13.02
		l15,3.53V47.89L60.15,55.39z M72.83,77.37L72.83,77.37L72.83,77.37 M72.82,77.39L72.82,77.39C72.81,77.39,72.81,77.39,72.82,77.39
		 M72.8,77.4c0,0-0.01,0.01-0.01,0.01C72.79,77.41,72.8,77.41,72.8,77.4 M72.79,77.42c-0.01,0-0.01,0.01-0.02,0.01
		C72.77,77.43,72.78,77.42,72.79,77.42"/>
	<path style="clip-path:url(#SVGID_00000059284952927418128730000003608252222519547575_);fill:#057D42;" d="M67.65,64.44
		c-1.84,0-3.68,0.67-5.13,2.03c-0.72,0.68-1.52,1.33-2.37,1.94v3.53c0,4.14,3.36,7.5,7.5,7.5c1.98,0,3.78-0.77,5.12-2.02
		c0-0.01,0.01-0.01,0.01-0.01c0,0,0,0,0-0.01c0,0,0.01-0.01,0.01-0.01c0,0,0.01-0.01,0.01-0.01c0,0,0,0,0.01-0.01
		c0,0,0.01-0.01,0.01-0.01c0,0,0,0,0,0c0.71-0.68,1.29-1.49,1.69-2.4c1.18-2.67,0.73-5.9-1.39-8.16
		C71.65,65.24,69.65,64.44,67.65,64.44"/>
</g>
<polygon class="st5" points="60.15,55.39 40.94,55.39 40.94,40.39 67.65,40.39 "/>
<g>
	<defs>
		<rect id="SVGID_00000179633127659896127050000010504848278207672716_" x="2.32" y="3.67" width="509.71" height="107.96"/>
	</defs>
	<clipPath id="SVGID_00000052797481692465882290000001319997715586678970_">
		<use xlink:href="#SVGID_00000179633127659896127050000010504848278207672716_"  style="overflow:visible;"/>
	</clipPath>
	<path style="clip-path:url(#SVGID_00000052797481692465882290000001319997715586678970_);fill:#334D2B;" d="M67.65,40.39
		c-4.14,0-7.5,3.36-7.5,7.5v7.5h7.5c4.14,0,7.5-3.36,7.5-7.5S71.8,40.39,67.65,40.39"/>
	
		<circle style="clip-path:url(#SVGID_00000052797481692465882290000001319997715586678970_);fill:#A3C72E;" cx="67.22" cy="22.79" r="7.5"/>
	
		<circle style="clip-path:url(#SVGID_00000052797481692465882290000001319997715586678970_);fill:#F59100;" cx="40.94" cy="47.89" r="7.5"/>
	<path style="clip-path:url(#SVGID_00000052797481692465882290000001319997715586678970_);fill:#9E1778;" d="M114.91,87.22
		c-1.81,0.24-3.54,0.37-5.19,0.37c-6.49,0-11.72-1.89-15.61-5.64c-6.14-5.92-6.12-14.05-5.99-16.25V11.17h15v55.27l-0.03,0.21
		c-0.04,0.86,0.15,3.3,1.48,4.53c1.38,1.29,4.34,1.7,8.33,1.16L114.91,87.22z"/>
	<path style="clip-path:url(#SVGID_00000052797481692465882290000001319997715586678970_);fill:#009C57;" d="M106.4,79.78
		c0-4.14,3.36-7.5,7.5-7.5c4.14,0,7.5,3.36,7.5,7.5c0,4.14-3.36,7.5-7.5,7.5C109.76,87.28,106.4,83.93,106.4,79.78"/>
	
		<circle style="clip-path:url(#SVGID_00000052797481692465882290000001319997715586678970_);fill:#F59100;" cx="95.63" cy="11.17" r="7.5"/>
</g>
<rect x="130.3" y="34.01" class="st11" width="15" height="45.33"/>
<g>
	<defs>
		<rect id="SVGID_00000043417983982900150000000009352345040182153404_" x="2.32" y="3.67" width="509.71" height="107.96"/>
	</defs>
	<clipPath id="SVGID_00000110433767807232544870000012209761672745894589_">
		<use xlink:href="#SVGID_00000043417983982900150000000009352345040182153404_"  style="overflow:visible;"/>
	</clipPath>
	
		<circle style="clip-path:url(#SVGID_00000110433767807232544870000012209761672745894589_);fill:#F59100;" cx="137.81" cy="11.27" r="7.5"/>
	<path style="clip-path:url(#SVGID_00000110433767807232544870000012209761672745894589_);fill:#009C57;" d="M130.3,79.34
		c0-4.14,3.36-7.5,7.5-7.5c4.14,0,7.5,3.36,7.5,7.5s-3.36,7.5-7.5,7.5C133.66,86.84,130.3,83.48,130.3,79.34"/>
	
		<circle style="clip-path:url(#SVGID_00000110433767807232544870000012209761672745894589_);fill:#FAC7C2;" cx="137.81" cy="34.01" r="7.5"/>
	<path style="clip-path:url(#SVGID_00000110433767807232544870000012209761672745894589_);fill:#009C57;" d="M163.88,86.8
		L163.88,86.8c-4.14,0-7.5-3.36-7.5-7.5V33.02c0-4.14,3.36-7.5,7.5-7.5c4.14,0,7.5,3.36,7.5,7.5V79.3
		C171.39,83.44,168.03,86.8,163.88,86.8z"/>
	<path style="clip-path:url(#SVGID_00000110433767807232544870000012209761672745894589_);fill:#9E1778;" d="M183.83,25.68
		c-4.76,0-9.4,1.19-13.52,3.47c0.68,1.13,1.07,2.45,1.07,3.87v19.49c0.01-13.36,20.1-16.52,24.25-3.48
		c0.35,1.09,0.53,2.25,0.54,3.48l7.53-18.46C198.64,28.82,191.55,25.68,183.83,25.68z"/>
	<path style="clip-path:url(#SVGID_00000110433767807232544870000012209761672745894589_);fill:#452938;" d="M170.31,29.16
		c-8.48,4.69-13.93,13.52-13.93,23.36c0,4.14,3.36,7.5,7.5,7.5c4.14,0,7.5-3.36,7.5-7.5V33.02
		C171.39,31.61,170.99,30.28,170.31,29.16"/>
</g>
<rect x="196.17" y="52.51" class="st17" width="15" height="26.85"/>
<rect x="235.95" y="52.51" class="st18" width="15" height="26.85"/>
<g>
	<defs>
		<rect id="SVGID_00000130636934283406941320000005247749825225554051_" x="2.32" y="3.67" width="509.71" height="107.96"/>
	</defs>
	<clipPath id="SVGID_00000090281298300056138070000010334185599022134145_">
		<use xlink:href="#SVGID_00000130636934283406941320000005247749825225554051_"  style="overflow:visible;"/>
	</clipPath>
	<path style="clip-path:url(#SVGID_00000090281298300056138070000010334185599022134145_);fill:#A3C72E;" d="M211.17,52.51
		L211.17,52.51c0.01-13.34,20.09-16.55,24.25-3.48c0.35,1.09,0.53,2.25,0.54,3.48h15c0-14.79-12.17-26.83-27.34-26.83
		c-7.69,0-14.82,3.11-19.92,8.37L211.17,52.51z"/>
	<path style="clip-path:url(#SVGID_00000090281298300056138070000010334185599022134145_);fill:#6E2B29;" d="M209,42.01
		c-1.29-2.98-3.1-5.66-5.31-7.96c-1.01,1.04-1.94,2.17-2.77,3.36c-1.49,2.14-2.68,4.51-3.5,7.06s-1.26,5.25-1.26,8.04
		c0,4.14,3.36,7.5,7.5,7.5s7.5-3.36,7.5-7.5C211.17,48.81,210.4,45.24,209,42.01z"/>
	<path style="clip-path:url(#SVGID_00000090281298300056138070000010334185599022134145_);fill:#00A340;" d="M243.45,45.01
		c-4.14,0-7.5,3.36-7.5,7.5s3.36,7.5,7.5,7.5c4.14,0,7.5-3.36,7.5-7.5S247.6,45.01,243.45,45.01"/>
	<path style="clip-path:url(#SVGID_00000090281298300056138070000010334185599022134145_);fill:#E82E82;" d="M156.38,79.34
		c0-4.14,3.36-7.5,7.5-7.5c4.14,0,7.5,3.36,7.5,7.5s-3.36,7.5-7.5,7.5C159.74,86.84,156.38,83.48,156.38,79.34"/>
	
		<circle style="clip-path:url(#SVGID_00000090281298300056138070000010334185599022134145_);fill:#FAC7C2;" cx="243.45" cy="79.34" r="7.5"/>
	<path style="clip-path:url(#SVGID_00000090281298300056138070000010334185599022134145_);fill:#3DA3DE;" d="M196.17,79.34
		c0-4.14,3.36-7.5,7.5-7.5c4.14,0,7.5,3.36,7.5,7.5s-3.36,7.5-7.5,7.5C199.53,86.84,196.17,83.48,196.17,79.34"/>
</g>
<polyline class="st25" points="266.49,36.1 266.49,104.13 281.5,104.13 281.5,36.1 "/>
<g>
	<defs>
		<rect id="SVGID_00000181773498256374428840000017017293299688675726_" x="2.32" y="3.67" width="509.71" height="107.96"/>
	</defs>
	<clipPath id="SVGID_00000008841292853685313880000005263367423171954344_">
		<use xlink:href="#SVGID_00000181773498256374428840000017017293299688675726_"  style="overflow:visible;"/>
	</clipPath>
	<path style="clip-path:url(#SVGID_00000008841292853685313880000005263367423171954344_);fill:#A3C72E;" d="M296.93,28.18
		c-5.94,0-11.49,1.71-16.17,4.66c0.48,0.99,0.74,2.09,0.74,3.26v48.53c4.52,2.67,9.79,4.21,15.43,4.21
		c16.75,0,30.33-13.58,30.33-30.33C327.26,41.76,313.68,28.18,296.93,28.18 M296.93,73.94c-8.52,0-15.43-6.91-15.43-15.43
		c0-8.52,6.91-15.43,15.43-15.43c8.52,0,15.43,6.91,15.43,15.43C312.35,67.04,305.45,73.94,296.93,73.94"/>
	<path style="clip-path:url(#SVGID_00000008841292853685313880000005263367423171954344_);fill:#148F40;" d="M280.76,32.85
		c-8.51,5.37-14.16,14.86-14.16,25.67c0,11.12,5.98,20.84,14.9,26.12V36.1C281.5,34.94,281.23,33.83,280.76,32.85"/>
	<path style="clip-path:url(#SVGID_00000008841292853685313880000005263367423171954344_);fill:#F59100;" d="M266.49,104.13
		c0-4.14,3.36-7.5,7.5-7.5s7.5,3.36,7.5,7.5c0,4.14-3.36,7.5-7.5,7.5S266.49,108.27,266.49,104.13"/>
	
		<circle style="clip-path:url(#SVGID_00000008841292853685313880000005263367423171954344_);fill:#9E1778;" cx="274" cy="36.06" r="7.5"/>
	<path style="clip-path:url(#SVGID_00000008841292853685313880000005263367423171954344_);fill:#A3C72E;" d="M384.52,68.99
		c0.01-17.24-21.71-19.25-26.64-20.99c-1.12-0.39-3.73-1.47-4.17-2.57c-0.03-0.09-0.07-0.2-0.07-0.51l-15,0.05
		c0.03,11,9.19,16.31,19.96,18.76c2.4,0.51,9.97,2.27,10.83,4.6c0.04,0.12,0.09,0.29,0.09,0.66
		C371.4,68.99,382.65,68.99,384.52,68.99z"/>
	<path style="clip-path:url(#SVGID_00000008841292853685313880000005263367423171954344_);fill:#F59100;" d="M348.48,68.46
		c4.19,2.75,8.23,4.66,13.8,4.66c3.32,0,7.24-0.81,7.24-4.13h15c0,10.51-8.21,19.14-22.24,19.14c-8.44,0-15.18-2.63-22.02-7.11
		L348.48,68.46z"/>
	<path style="clip-path:url(#SVGID_00000008841292853685313880000005263367423171954344_);fill:#3DA3DE;" d="M377.9,30.77
		c-2.17-1.12-4.53-2.21-7.06-3.1c-15.56-5.43-32.2,0.72-32.2,17.13l15,0.12c0-2.08,0.32-4.14,6.31-4.14
		c7.31,0,10.34,4.15,14.49,4.15L377.9,30.77z"/>
	<path style="clip-path:url(#SVGID_00000008841292853685313880000005263367423171954344_);fill:#148F40;" d="M346.15,37.41
		c-4.14,0-7.5,3.36-7.5,7.5v0.06c0.04,4.12,3.39,7.44,7.5,7.44c0.02,0,0.04,0,0.06,0c4.29-0.03,7.51-3.62,7.44-7.5
		C353.65,40.77,350.29,37.41,346.15,37.41"/>
	
		<circle style="clip-path:url(#SVGID_00000008841292853685313880000005263367423171954344_);fill:#A17D24;" cx="377.02" cy="68.99" r="7.5"/>
	
		<circle style="clip-path:url(#SVGID_00000008841292853685313880000005263367423171954344_);fill:#E82E82;" cx="374.46" cy="37.43" r="7.5"/>
	
		<circle style="clip-path:url(#SVGID_00000008841292853685313880000005263367423171954344_);fill:#3D2E82;" cx="344.37" cy="74.81" r="7.5"/>
	<path style="clip-path:url(#SVGID_00000008841292853685313880000005263367423171954344_);fill:#F59100;" d="M409.15,56.99
		L409.15,56.99c0,2.79,0.51,5.29,1.41,7.42c0.9,2.12,2.17,3.87,3.8,5.27c1.1,0.93,2.37,1.71,3.88,2.33c2.02,0.81,4.48,1.33,7.5,1.33
		h0.03c1.87,0,3.97-0.4,5.97-1.18c2-0.78,3.88-1.92,5.35-3.24l10.02,11.17c-2.93,2.62-6.31,4.64-9.92,6.05
		c-3.62,1.4-7.49,2.2-11.43,2.2h-0.01c-3.99,0-7.77-0.58-11.23-1.73c-3.46-1.14-6.6-2.85-9.29-5.02c-1.79-1.44-3.38-3.09-4.75-4.88
		c-1.83-2.39-3.26-5.04-4.29-7.85c-1.38-3.75-2.04-7.76-2.04-11.87H409.15z"/>
	<path style="clip-path:url(#SVGID_00000008841292853685313880000005263367423171954344_);fill:#A3C72E;" d="M424.27,25.65h-0.03
		h-0.01c-16.43,0-30.1,14.07-30.09,31.34h0h15c0-9.07,7.01-16.34,15.1-16.34c6.65,0.01,11.57,3.42,13.96,8.83l16.51,7.5
		C454.72,39.5,442.08,25.65,424.27,25.65"/>
	<path style="clip-path:url(#SVGID_00000008841292853685313880000005263367423171954344_);fill:#A17D24;" d="M401.64,49.48
		c-4.14,0-7.5,3.36-7.5,7.5h0c0,4.14,3.36,7.5,7.5,7.5c4.14,0,7.5-3.36,7.5-7.5S405.79,49.48,401.64,49.48"/>
	<path style="clip-path:url(#SVGID_00000008841292853685313880000005263367423171954344_);fill:#E83082;" d="M438.21,49.48h-16.94
		c-4.14,0-7.5,3.36-7.5,7.5s3.36,7.5,7.5,7.5h25.95L438.21,49.48z"/>
	<path style="clip-path:url(#SVGID_00000008841292853685313880000005263367423171954344_);fill:#9E3829;" d="M447.22,49.48h-9.01
		c0.02,0.04,0.04,0.09,0.06,0.13c0.92,2.15,1.45,4.64,1.45,7.37c0,4.14,3.36,7.5,7.5,7.5c4.14,0,7.5-3.36,7.5-7.5
		S451.36,49.48,447.22,49.48"/>
	<path style="clip-path:url(#SVGID_00000008841292853685313880000005263367423171954344_);fill:#3DA3DE;" d="M434.59,74.49
		c0-4.14,3.36-7.5,7.5-7.5s7.5,3.36,7.5,7.5s-3.36,7.5-7.5,7.5S434.59,78.63,434.59,74.49"/>
	<path style="clip-path:url(#SVGID_00000008841292853685313880000005263367423171954344_);fill:#A3C72E;" d="M512.03,68.99
		c0.01-17.24-21.71-19.25-26.64-20.99c-1.12-0.39-3.73-1.47-4.17-2.57c-0.03-0.09-0.07-0.2-0.07-0.51l-15,0.05
		c0.03,11,9.19,16.31,19.96,18.76c2.4,0.51,9.97,2.27,10.83,4.6c0.04,0.12,0.09,0.29,0.09,0.66
		C498.9,68.99,510.15,68.99,512.03,68.99z"/>
	<path style="clip-path:url(#SVGID_00000008841292853685313880000005263367423171954344_);fill:#F59100;" d="M475.98,68.46
		c4.19,2.75,8.23,4.66,13.8,4.66c3.32,0,7.24-0.81,7.24-4.13h15c0,10.51-8.21,19.14-22.24,19.14c-8.44,0-15.18-2.63-22.02-7.11
		L475.98,68.46z"/>
	<path style="clip-path:url(#SVGID_00000008841292853685313880000005263367423171954344_);fill:#3DA3DE;" d="M505.4,30.77
		c-2.17-1.12-4.53-2.21-7.06-3.1c-15.56-5.43-32.2,0.72-32.2,17.13l15,0.12c0-2.08,0.32-4.14,6.31-4.14
		c7.31,0,10.34,4.15,14.49,4.15L505.4,30.77z"/>
	<path style="clip-path:url(#SVGID_00000008841292853685313880000005263367423171954344_);fill:#148F40;" d="M473.65,37.41
		c-4.14,0-7.5,3.36-7.5,7.5v0.06c0.04,4.12,3.39,7.44,7.5,7.44c0.02,0,0.04,0,0.06,0c4.29-0.03,7.51-3.62,7.44-7.5
		C481.15,40.77,477.79,37.41,473.65,37.41"/>
	
		<circle style="clip-path:url(#SVGID_00000008841292853685313880000005263367423171954344_);fill:#A17D24;" cx="504.52" cy="68.99" r="7.5"/>
	
		<circle style="clip-path:url(#SVGID_00000008841292853685313880000005263367423171954344_);fill:#E82E82;" cx="501.96" cy="37.43" r="7.5"/>
	
		<circle style="clip-path:url(#SVGID_00000008841292853685313880000005263367423171954344_);fill:#3D2E82;" cx="471.87" cy="74.81" r="7.5"/>
</g>
</svg>
